<svg xmlns="http://www.w3.org/2000/svg" width="512" height="512" enable-background="new 0 0 512 512" viewBox="0 0 512 512" id="seed"><path d="M256.321,481.398c-0.002,0-0.004,0-0.007,0c-20.549-0.001-41.527-4.084-59.071-11.498
				c-25.23-10.661-49.641-30.735-65.297-53.699c-13.513-19.82-27.051-51.167-14.805-87.948c5.157-15.201,26.76-48.465,57.418-48.465
				c3.881,0,7.803,0.549,11.657,1.632c0.095,0.026,0.189,0.057,0.283,0.089c15.68,5.428,22.637,11.457,30.691,18.438
				c8.385,7.268,17.884,15.502,40.652,26.529c23.778,8.641,36.304,9.713,47.359,10.659c10.621,0.909,19.793,1.695,34.615,9.156
				c0.089,0.044,0.176,0.091,0.261,0.141c33.291,19.313,22.332,66.973,14.574,82.149
				C337.252,462.156,301.415,481.398,256.321,481.398z M174.56,289.788c-25.796,0-44.166,30.529-47.939,41.65
				c-19.464,58.459,32.956,111.69,74.515,129.251c16.34,6.904,35.937,10.708,55.179,10.709c0.001,0,0.005,0,0.006,0
				c24.232,0,68.068-6.157,89.44-47.394c6.318-12.359,15.974-53.3-10.575-68.85c-13.016-6.529-20.497-7.17-30.837-8.056
				c-11.133-0.953-24.987-2.14-50.166-11.313c-0.158-0.058-0.313-0.123-0.464-0.196c-24.128-11.66-34.635-20.768-43.078-28.086
				c-7.841-6.797-13.515-11.715-27.269-16.496C180.444,290.198,177.48,289.788,174.56,289.788z"></path><path d="M291.224,345.599c-0.485,0-0.976-0.066-1.459-0.198c-2.664-0.727-4.235-3.476-3.509-6.14
			c0.683-2.504,3.155-4.042,5.66-3.614c2.434,0.337,4.308,2.426,4.308,4.952C296.224,343.36,293.985,345.599,291.224,345.599z"></path><path d="M270.554,374.438c-8.838,0-18.945-2.271-30.04-6.75c-0.05-0.021-0.099-0.041-0.148-0.063
			c-20.487-9.049-32.697-20.766-36.291-34.824c-4.394-17.187,6.018-31.024,6.463-31.605c1.682-2.19,4.82-2.603,7.01-0.925
			c2.186,1.677,2.603,4.804,0.938,6.993c-0.091,0.122-7.931,10.738-4.695,23.166c2.832,10.875,13.108,20.301,30.543,28.016
			c9.869,3.977,18.69,5.993,26.221,5.993c24.838,0,28.368-22.166,28.506-23.109c0.4-2.732,2.933-4.627,5.671-4.224
			c2.732,0.399,4.624,2.939,4.224,5.671C307.352,353.727,297.264,374.438,270.554,374.438z"></path><path d="M256.334 336.228c-.513 0-1.033-.079-1.544-.246-.117-.032-.232-.068-.346-.108-.621-.133-.698-.176-1.199-.545-2.236-1.325-3.1-4.174-1.919-6.535 1.188-2.376 4.013-3.39 6.425-2.367.137.044.256.087.354.124 2.583.976 3.884 3.859 2.909 6.442C260.259 334.994 258.354 336.228 256.334 336.228zM224.426 317.387c-1.007 0-2.015-.302-2.877-.91-.018-.012-.035-.024-.052-.037-.102-.07-.202-.146-.3-.224-.042-.033-.084-.066-.126-.102-.172-.14-.345-.298-.489-.448-1.909-1.995-1.838-5.16.157-7.069 1.845-1.764 4.691-1.837 6.618-.261.186.135.363.281.526.438 1.996 1.909 2.066 5.074.157 7.069C227.058 316.869 225.742 317.387 224.426 317.387zM287.991 203.404c-2.118 0-4.034-1.345-4.729-3.387-.945-2.772-22.804-68.431 6.873-114.88 29.679-46.451 98.449-54.2 101.362-54.507 2.321-.24 4.504 1.149 5.257 3.359.945 2.772 22.813 68.435-6.868 114.884-29.678 46.452-98.454 54.197-101.367 54.504C288.342 203.395 288.166 203.404 287.991 203.404zM388.475 41.153c-14.902 2.388-66.755 13.123-89.912 49.368-23.198 36.309-11.13 87.817-7.025 102.333 14.901-2.387 66.764-13.118 89.922-49.366C404.618 107.245 392.57 55.681 388.475 41.153zM208.206 193.116c-20.448 0-49.138-3.799-69.688-21.898-34.257-30.165-31.895-87.307-31.777-89.724.113-2.332 1.825-4.275 4.124-4.682.396-.07 9.841-1.713 23.314-1.713 20.452 0 49.146 3.799 69.701 21.899 34.255 30.166 31.897 87.303 31.78 89.721-.113 2.332-1.824 4.274-4.123 4.681C231.141 191.47 221.687 193.116 208.206 193.116zM116.694 86.095c.157 13.219 2.759 55.01 28.433 77.617 18.209 16.037 44.354 19.403 63.079 19.403 7.512 0 13.702-.549 17.5-.996-.157-13.215-2.761-55.007-28.435-77.617-18.212-16.038-44.362-19.404-63.092-19.404C126.703 85.099 120.501 85.648 116.694 86.095z"></path><path d="M256.338,336.238c-2.022,0-3.85-1.221-4.624-3.089c-0.369-0.89-0.463-1.847-0.307-2.758
				c1.683-11.726,10.91-71.595,31.931-133.604c16.763-49.436,36.723-87.766,59.325-113.928c1.805-2.088,4.963-2.319,7.052-0.515
				c2.09,1.806,2.32,4.963,0.515,7.053c-21.755,25.181-41.074,62.393-57.421,110.601c-20.738,61.174-29.842,120.236-31.503,131.809
				C261.023,334.301,258.907,336.238,256.338,336.238z"></path><path d="M268.325,272.18c-2.118,0-4.085-1.356-4.763-3.482c-0.373-1.169-37.895-116.978-93.479-129.715
				c-2.692-0.617-4.374-3.299-3.757-5.99c0.617-2.692,3.299-4.376,5.99-3.757c61.127,14.008,99.183,131.434,100.772,136.426
				c0.839,2.631-0.615,5.442-3.245,6.281C269.34,272.104,268.828,272.18,268.325,272.18z"></path></svg>